# MagicaVoxel @ Ephtracy

# group
o 

# material
mtllib Japanese Street Light.mtl
usemtl palette

# normals
vn -1 0 0
vn 1 0 0
vn 0 0 1
vn 0 0 -1
vn 0 -1 0
vn 0 1 0

# texcoords
vt 0.306641 0.5
vt 0.314453 0.5
vt 0.326172 0.5
vt 0.330078 0.5
vt 0.345703 0.5

# verts
v 1.5 10.6 -1.2
v 1.5 10.6 -1.9
v 1.5 10.7 -1.2
v 1.5 10.7 -1.9
v 1.6 10.4 -1.4
v 1.6 10.4 -1.7
v 1.6 10.6 -1.4
v 1.6 10.6 -1.7
v 1.6 10.7 -1.4
v 1.6 10.7 -1.7
v 1.6 10.9 -1.4
v 1.6 10.9 -1.7
v 1.7 2 -1.8
v 1.7 2 -2.1
v 1.7 8.1 -1.8
v 1.7 8.1 -2.1
v 1.7 8.2 -1.8
v 1.7 8.2 -2.1
v 1.7 8.3 -1.8
v 1.7 8.3 -2.1
v 1.7 8.4 -1.8
v 1.7 8.4 -2.1
v 1.7 8.5 -0.6
v 1.7 8.5 -1.5
v 1.7 8.6 -0.6
v 1.7 8.6 -1.5
v 1.7 10.4 -1.3
v 1.7 10.4 -1.4
v 1.7 10.4 -1.7
v 1.7 10.4 -1.8
v 1.7 10.6 -1.3
v 1.7 10.6 -1.4
v 1.7 10.6 -1.7
v 1.7 10.6 -1.8
v 1.7 10.6 -1.9
v 1.7 10.7 -1.3
v 1.7 10.7 -1.4
v 1.7 10.7 -1.7
v 1.7 10.7 -1.8
v 1.7 10.7 -1.9
v 1.7 10.9 -1.3
v 1.7 10.9 -1.4
v 1.7 10.9 -1.7
v 1.7 10.9 -1.8
v 1.7 11.7 -1.8
v 1.7 11.7 -2.1
v 1.7 11.8 -1.8
v 1.7 11.8 -2.1
v 1.7 12.8 -1.8
v 1.7 12.8 -2.1
v 1.8 8.1 -1.7
v 1.8 8.1 -1.8
v 1.8 8.2 -1.8
v 1.8 8.3 -1.6
v 1.8 8.3 -1.7
v 1.8 8.3 -1.8
v 1.8 8.4 -1.5
v 1.8 8.4 -1.6
v 1.8 8.4 -1.8
v 1.8 8.5 -1.5
v 1.8 8.5 -1.6
v 1.8 10.1 -1.5
v 1.8 10.1 -1.8
v 1.8 10.2 -1.4
v 1.8 10.2 -1.5
v 1.8 10.2 -1.7
v 1.8 10.2 -1.8
v 1.8 10.3 -1.3
v 1.8 10.3 -1.4
v 1.8 10.3 -1.6
v 1.8 10.3 -1.7
v 1.8 10.4 -1.3
v 1.8 10.4 -1.6
v 2 12.5 -1
v 2 12.5 -1.8
v 2 12.5 -2.1
v 2 12.5 -3.2
v 2 12.8 -1
v 2 12.8 -1.8
v 2 12.8 -2.1
v 2 12.8 -3.2
v 2.1 10.6 -1.3
v 2.1 10.6 -1.4
v 2.1 10.6 -1.7
v 2.1 10.6 -1.8
v 2.1 10.7 -1.3
v 2.1 10.7 -1.4
v 2.1 10.7 -1.7
v 2.1 10.7 -1.8
v 1.6 10.6 -1.3
v 1.6 10.6 -1.4
v 1.6 10.6 -1.7
v 1.6 10.6 -1.8
v 1.6 10.7 -1.3
v 1.6 10.7 -1.4
v 1.6 10.7 -1.7
v 1.6 10.7 -1.8
v 1.9 8.1 -1.7
v 1.9 8.1 -1.8
v 1.9 8.2 -1.8
v 1.9 8.3 -1.6
v 1.9 8.3 -1.7
v 1.9 8.3 -1.8
v 1.9 8.4 -1.5
v 1.9 8.4 -1.6
v 1.9 8.4 -1.8
v 1.9 8.5 -1.5
v 1.9 8.5 -1.6
v 1.9 10.1 -1.5
v 1.9 10.1 -1.8
v 1.9 10.2 -1.4
v 1.9 10.2 -1.5
v 1.9 10.2 -1.7
v 1.9 10.2 -1.8
v 1.9 10.3 -1.3
v 1.9 10.3 -1.4
v 1.9 10.3 -1.6
v 1.9 10.3 -1.7
v 1.9 10.4 -1.3
v 1.9 10.4 -1.6
v 2 2 -1.8
v 2 2 -2.1
v 2 8.1 -1.8
v 2 8.1 -2.1
v 2 8.2 -1.8
v 2 8.2 -2.1
v 2 8.3 -1.8
v 2 8.3 -2.1
v 2 8.4 -1.8
v 2 8.4 -2.1
v 2 8.5 -0.6
v 2 8.5 -1.5
v 2 8.6 -0.6
v 2 8.6 -1.5
v 2 10.4 -1.3
v 2 10.4 -1.4
v 2 10.4 -1.7
v 2 10.4 -1.8
v 2 10.5 -1.7
v 2 10.5 -1.8
v 2 10.6 -1.3
v 2 10.6 -1.7
v 2 10.6 -1.8
v 2 10.6 -1.9
v 2 10.7 -1.3
v 2 10.7 -1.7
v 2 10.7 -1.8
v 2 10.7 -1.9
v 2 10.8 -1.7
v 2 10.8 -1.8
v 2 10.9 -1.3
v 2 10.9 -1.4
v 2 10.9 -1.7
v 2 10.9 -1.8
v 2 11.7 -1.8
v 2 11.7 -2.1
v 2 11.8 -1.8
v 2 11.8 -2.1
v 2 12.5 -1.8
v 2 12.5 -2.1
v 2.1 10.4 -1.4
v 2.1 10.4 -1.7
v 2.1 10.6 -1.4
v 2.1 10.6 -1.7
v 2.1 10.7 -1.4
v 2.1 10.7 -1.7
v 2.1 10.9 -1.4
v 2.1 10.9 -1.7
v 2.2 10.6 -1.2
v 2.2 10.6 -1.9
v 2.2 10.7 -1.2
v 2.2 10.7 -1.9
v 2.3 12.5 -1
v 2.3 12.5 -3.2
v 2.3 12.8 -1
v 2.3 12.8 -3.2
v 1.7 8.5 -0.6
v 1.7 8.6 -0.6
v 2 8.5 -0.6
v 2 8.6 -0.6
v 2 12.5 -1
v 2 12.8 -1
v 2.3 12.5 -1
v 2.3 12.8 -1
v 1.5 10.6 -1.2
v 1.5 10.7 -1.2
v 2.2 10.6 -1.2
v 2.2 10.7 -1.2
v 1.7 10.4 -1.3
v 1.7 10.6 -1.3
v 1.7 10.7 -1.3
v 1.7 10.9 -1.3
v 1.8 10.3 -1.3
v 1.8 10.4 -1.3
v 1.9 10.3 -1.3
v 1.9 10.4 -1.3
v 2 10.4 -1.3
v 2 10.6 -1.3
v 2 10.7 -1.3
v 2 10.9 -1.3
v 1.6 10.4 -1.4
v 1.6 10.6 -1.4
v 1.6 10.7 -1.4
v 1.6 10.9 -1.4
v 1.7 10.4 -1.4
v 1.7 10.6 -1.4
v 1.7 10.7 -1.4
v 1.7 10.9 -1.4
v 1.8 10.2 -1.4
v 1.8 10.3 -1.4
v 1.9 10.2 -1.4
v 1.9 10.3 -1.4
v 2 10.4 -1.4
v 2 10.9 -1.4
v 2.1 10.4 -1.4
v 2.1 10.6 -1.4
v 2.1 10.7 -1.4
v 2.1 10.9 -1.4
v 1.8 8.4 -1.5
v 1.8 8.5 -1.5
v 1.8 10.1 -1.5
v 1.8 10.2 -1.5
v 1.9 8.4 -1.5
v 1.9 8.5 -1.5
v 1.9 10.1 -1.5
v 1.9 10.2 -1.5
v 1.8 8.3 -1.6
v 1.8 8.4 -1.6
v 1.9 8.3 -1.6
v 1.9 8.4 -1.6
v 1.8 8.1 -1.7
v 1.8 8.3 -1.7
v 1.9 8.1 -1.7
v 1.9 8.3 -1.7
v 1.6 10.6 -1.8
v 1.6 10.7 -1.8
v 1.7 2 -1.8
v 1.7 8.1 -1.8
v 1.7 8.2 -1.8
v 1.7 8.3 -1.8
v 1.7 8.4 -1.8
v 1.7 10.4 -1.8
v 1.7 10.6 -1.8
v 1.7 10.7 -1.8
v 1.7 10.9 -1.8
v 1.7 11.7 -1.8
v 1.7 11.8 -1.8
v 1.7 12.8 -1.8
v 1.8 8.1 -1.8
v 1.8 8.2 -1.8
v 1.8 8.3 -1.8
v 1.8 8.4 -1.8
v 1.8 10.1 -1.8
v 1.8 10.2 -1.8
v 1.9 8.1 -1.8
v 1.9 8.2 -1.8
v 1.9 8.3 -1.8
v 1.9 8.4 -1.8
v 1.9 10.1 -1.8
v 1.9 10.2 -1.8
v 2 2 -1.8
v 2 8.1 -1.8
v 2 8.2 -1.8
v 2 8.3 -1.8
v 2 8.4 -1.8
v 2 10.4 -1.8
v 2 10.6 -1.8
v 2 10.7 -1.8
v 2 10.9 -1.8
v 2 11.7 -1.8
v 2 11.8 -1.8
v 2 12.5 -1.8
v 2 12.8 -1.8
v 2.1 10.6 -1.8
v 2.1 10.7 -1.8
v 1.6 10.6 -1.3
v 1.6 10.7 -1.3
v 1.7 10.6 -1.3
v 1.7 10.7 -1.3
v 2 10.6 -1.3
v 2 10.7 -1.3
v 2.1 10.6 -1.3
v 2.1 10.7 -1.3
v 1.7 8.5 -1.5
v 1.7 8.6 -1.5
v 1.8 8.5 -1.5
v 1.9 8.5 -1.5
v 2 8.5 -1.5
v 2 8.6 -1.5
v 1.8 8.4 -1.6
v 1.8 8.5 -1.6
v 1.8 10.3 -1.6
v 1.8 10.4 -1.6
v 1.9 8.4 -1.6
v 1.9 8.5 -1.6
v 1.9 10.3 -1.6
v 1.9 10.4 -1.6
v 1.6 10.4 -1.7
v 1.6 10.6 -1.7
v 1.6 10.7 -1.7
v 1.6 10.9 -1.7
v 1.7 10.4 -1.7
v 1.7 10.6 -1.7
v 1.7 10.7 -1.7
v 1.7 10.9 -1.7
v 1.8 10.2 -1.7
v 1.8 10.3 -1.7
v 1.9 10.2 -1.7
v 1.9 10.3 -1.7
v 2 10.4 -1.7
v 2 10.5 -1.7
v 2 10.6 -1.7
v 2 10.7 -1.7
v 2 10.8 -1.7
v 2 10.9 -1.7
v 2.1 10.4 -1.7
v 2.1 10.6 -1.7
v 2.1 10.7 -1.7
v 2.1 10.9 -1.7
v 1.5 10.6 -1.9
v 1.5 10.7 -1.9
v 1.7 10.6 -1.9
v 1.7 10.7 -1.9
v 2 10.6 -1.9
v 2 10.7 -1.9
v 2.2 10.6 -1.9
v 2.2 10.7 -1.9
v 1.7 2 -2.1
v 1.7 8.1 -2.1
v 1.7 8.2 -2.1
v 1.7 8.3 -2.1
v 1.7 8.4 -2.1
v 1.7 11.7 -2.1
v 1.7 11.8 -2.1
v 1.7 12.8 -2.1
v 2 2 -2.1
v 2 8.1 -2.1
v 2 8.2 -2.1
v 2 8.3 -2.1
v 2 8.4 -2.1
v 2 11.7 -2.1
v 2 11.8 -2.1
v 2 12.5 -2.1
v 2 12.8 -2.1
v 2 12.5 -3.2
v 2 12.8 -3.2
v 2.3 12.5 -3.2
v 2.3 12.8 -3.2
v 1.7 2 -1.8
v 2 2 -1.8
v 1.8 2 -1.9
v 1.9 2 -1.9
v 1.8 2 -2
v 1.9 2 -2
v 1.7 2 -2.1
v 2 2 -2.1
v 1.8 8.1 -1.7
v 1.9 8.1 -1.7
v 1.8 8.1 -1.8
v 1.9 8.1 -1.8
v 1.8 8.3 -1.6
v 1.9 8.3 -1.6
v 1.8 8.3 -1.7
v 1.9 8.3 -1.7
v 1.8 8.4 -1.5
v 1.9 8.4 -1.5
v 1.8 8.4 -1.6
v 1.9 8.4 -1.6
v 1.7 8.5 -0.6
v 2 8.5 -0.6
v 1.7 8.5 -1.5
v 1.8 8.5 -1.5
v 1.9 8.5 -1.5
v 2 8.5 -1.5
v 1.8 10.1 -1.5
v 1.9 10.1 -1.5
v 1.8 10.1 -1.8
v 1.9 10.1 -1.8
v 1.8 10.2 -1.4
v 1.9 10.2 -1.4
v 1.8 10.2 -1.5
v 1.9 10.2 -1.5
v 1.8 10.3 -1.3
v 1.9 10.3 -1.3
v 1.8 10.3 -1.4
v 1.9 10.3 -1.4
v 1.7 10.4 -1.3
v 1.8 10.4 -1.3
v 1.9 10.4 -1.3
v 2 10.4 -1.3
v 1.6 10.4 -1.4
v 1.7 10.4 -1.4
v 2 10.4 -1.4
v 2.1 10.4 -1.4
v 1.8 10.4 -1.6
v 1.9 10.4 -1.6
v 1.6 10.4 -1.7
v 1.7 10.4 -1.7
v 2 10.4 -1.7
v 2.1 10.4 -1.7
v 1.7 10.4 -1.8
v 2 10.4 -1.8
v 1.5 10.6 -1.2
v 2.2 10.6 -1.2
v 1.6 10.6 -1.3
v 1.7 10.6 -1.3
v 2 10.6 -1.3
v 2.1 10.6 -1.3
v 1.6 10.6 -1.4
v 2.1 10.6 -1.4
v 1.6 10.6 -1.7
v 2.1 10.6 -1.7
v 1.6 10.6 -1.8
v 1.7 10.6 -1.8
v 2 10.6 -1.8
v 2.1 10.6 -1.8
v 1.5 10.6 -1.9
v 1.7 10.6 -1.9
v 2 10.6 -1.9
v 2.2 10.6 -1.9
v 2 12.5 -1
v 2.3 12.5 -1
v 2 12.5 -1.8
v 2 12.5 -2.1
v 2 12.5 -3.2
v 2.3 12.5 -3.2
v 1.8 8.4 -1.6
v 1.9 8.4 -1.6
v 1.8 8.4 -1.8
v 1.9 8.4 -1.8
v 1.8 8.5 -1.5
v 1.9 8.5 -1.5
v 1.8 8.5 -1.6
v 1.9 8.5 -1.6
v 1.7 8.6 -0.6
v 2 8.6 -0.6
v 1.7 8.6 -1.5
v 2 8.6 -1.5
v 1.8 10.2 -1.7
v 1.9 10.2 -1.7
v 1.8 10.2 -1.8
v 1.9 10.2 -1.8
v 1.8 10.3 -1.6
v 1.9 10.3 -1.6
v 1.8 10.3 -1.7
v 1.9 10.3 -1.7
v 1.5 10.7 -1.2
v 2.2 10.7 -1.2
v 1.6 10.7 -1.3
v 1.7 10.7 -1.3
v 2 10.7 -1.3
v 2.1 10.7 -1.3
v 1.6 10.7 -1.4
v 2.1 10.7 -1.4
v 1.6 10.7 -1.7
v 2.1 10.7 -1.7
v 1.6 10.7 -1.8
v 1.7 10.7 -1.8
v 2 10.7 -1.8
v 2.1 10.7 -1.8
v 1.5 10.7 -1.9
v 1.7 10.7 -1.9
v 2 10.7 -1.9
v 2.2 10.7 -1.9
v 1.7 10.9 -1.3
v 2 10.9 -1.3
v 1.6 10.9 -1.4
v 1.7 10.9 -1.4
v 2 10.9 -1.4
v 2.1 10.9 -1.4
v 1.6 10.9 -1.7
v 1.7 10.9 -1.7
v 2 10.9 -1.7
v 2.1 10.9 -1.7
v 1.7 10.9 -1.8
v 2 10.9 -1.8
v 2 12.8 -1
v 2.3 12.8 -1
v 1.7 12.8 -1.8
v 2 12.8 -1.8
v 1.7 12.8 -2.1
v 2 12.8 -2.1
v 2 12.8 -3.2
v 2.3 12.8 -3.2

# faces
f 3/5/1 2/5/1 1/5/1
f 4/5/1 2/5/1 3/5/1
f 7/4/1 6/4/1 5/4/1
f 8/4/1 6/4/1 7/4/1
f 11/4/1 10/4/1 9/4/1
f 12/4/1 10/4/1 11/4/1
f 15/2/1 14/2/1 13/2/1
f 16/2/1 14/2/1 15/2/1
f 17/5/1 16/5/1 15/5/1
f 18/5/1 16/5/1 17/5/1
f 19/2/1 18/2/1 17/2/1
f 20/2/1 18/2/1 19/2/1
f 21/5/1 20/5/1 19/5/1
f 22/5/1 20/5/1 21/5/1
f 25/2/1 24/2/1 23/2/1
f 26/2/1 24/2/1 25/2/1
f 30/2/1 22/2/1 21/2/1
f 31/4/1 28/4/1 27/4/1
f 32/4/1 28/4/1 31/4/1
f 33/4/1 30/4/1 29/4/1
f 34/2/1 22/2/1 30/2/1
f 34/4/1 30/4/1 33/4/1
f 35/2/1 22/2/1 34/2/1
f 36/3/1 32/3/1 31/3/1
f 37/3/1 32/3/1 36/3/1
f 38/4/1 34/4/1 33/4/1
f 39/4/1 34/4/1 38/4/1
f 40/2/1 22/2/1 35/2/1
f 41/4/1 37/4/1 36/4/1
f 42/4/1 37/4/1 41/4/1
f 43/4/1 39/4/1 38/4/1
f 44/2/1 40/2/1 39/2/1
f 44/4/1 39/4/1 43/4/1
f 45/2/1 40/2/1 44/2/1
f 46/2/1 22/2/1 40/2/1
f 46/2/1 40/2/1 45/2/1
f 47/5/1 46/5/1 45/5/1
f 48/5/1 46/5/1 47/5/1
f 49/2/1 48/2/1 47/2/1
f 50/2/1 48/2/1 49/2/1
f 53/2/1 52/2/1 51/2/1
f 55/2/1 53/2/1 51/2/1
f 56/2/1 53/2/1 55/2/1
f 58/2/1 55/2/1 54/2/1
f 58/2/1 56/2/1 55/2/1
f 59/2/1 56/2/1 58/2/1
f 60/2/1 58/2/1 57/2/1
f 61/2/1 58/2/1 60/2/1
f 65/4/1 63/4/1 62/4/1
f 66/4/1 63/4/1 65/4/1
f 67/4/1 63/4/1 66/4/1
f 69/4/1 65/4/1 64/4/1
f 69/4/1 66/4/1 65/4/1
f 70/4/1 66/4/1 69/4/1
f 71/4/1 66/4/1 70/4/1
f 72/4/1 69/4/1 68/4/1
f 72/4/1 70/4/1 69/4/1
f 73/4/1 70/4/1 72/4/1
f 78/2/1 75/2/1 74/2/1
f 79/2/1 75/2/1 78/2/1
f 80/2/1 77/2/1 76/2/1
f 81/2/1 77/2/1 80/2/1
f 86/5/1 83/5/1 82/5/1
f 87/5/1 83/5/1 86/5/1
f 88/5/1 85/5/1 84/5/1
f 89/5/1 85/5/1 88/5/1
f 90/5/2 91/5/2 94/5/2
f 94/5/2 91/5/2 95/5/2
f 92/5/2 93/5/2 96/5/2
f 96/5/2 93/5/2 97/5/2
f 98/2/2 99/2/2 100/2/2
f 98/2/2 100/2/2 102/2/2
f 102/2/2 100/2/2 103/2/2
f 101/2/2 102/2/2 105/2/2
f 102/2/2 103/2/2 105/2/2
f 105/2/2 103/2/2 106/2/2
f 104/2/2 105/2/2 107/2/2
f 107/2/2 105/2/2 108/2/2
f 109/4/2 110/4/2 112/4/2
f 112/4/2 110/4/2 113/4/2
f 113/4/2 110/4/2 114/4/2
f 111/4/2 112/4/2 116/4/2
f 112/4/2 113/4/2 116/4/2
f 116/4/2 113/4/2 117/4/2
f 117/4/2 113/4/2 118/4/2
f 115/4/2 116/4/2 119/4/2
f 116/4/2 117/4/2 119/4/2
f 119/4/2 117/4/2 120/4/2
f 121/2/2 122/2/2 123/2/2
f 123/2/2 122/2/2 124/2/2
f 123/5/2 124/5/2 125/5/2
f 125/5/2 124/5/2 126/5/2
f 125/2/2 126/2/2 127/2/2
f 127/2/2 126/2/2 128/2/2
f 127/5/2 128/5/2 129/5/2
f 129/5/2 128/5/2 130/5/2
f 131/2/2 132/2/2 133/2/2
f 133/2/2 132/2/2 134/2/2
f 129/2/2 130/2/2 138/2/2
f 137/4/2 138/4/2 139/4/2
f 138/2/2 130/2/2 140/2/2
f 139/4/2 138/4/2 140/4/2
f 135/4/2 136/4/2 141/4/2
f 139/2/2 140/2/2 142/2/2
f 140/2/2 130/2/2 143/2/2
f 142/2/2 140/2/2 143/2/2
f 143/2/2 130/2/2 144/2/2
f 141/4/2 136/4/2 145/4/2
f 142/2/2 143/2/2 146/2/2
f 146/2/2 143/2/2 147/2/2
f 144/2/2 130/2/2 148/2/2
f 146/2/2 147/2/2 149/2/2
f 147/2/2 148/2/2 149/2/2
f 149/2/2 148/2/2 150/2/2
f 145/4/2 136/4/2 151/4/2
f 151/4/2 136/4/2 152/4/2
f 149/4/2 150/4/2 153/4/2
f 150/2/2 148/2/2 154/2/2
f 153/4/2 150/4/2 154/4/2
f 154/2/2 148/2/2 155/2/2
f 148/2/2 130/2/2 156/2/2
f 155/2/2 148/2/2 156/2/2
f 155/5/2 156/5/2 157/5/2
f 157/5/2 156/5/2 158/5/2
f 157/2/2 158/2/2 159/2/2
f 159/2/2 158/2/2 160/2/2
f 161/4/2 162/4/2 163/4/2
f 163/4/2 162/4/2 164/4/2
f 165/4/2 166/4/2 167/4/2
f 167/4/2 166/4/2 168/4/2
f 169/5/2 170/5/2 171/5/2
f 171/5/2 170/5/2 172/5/2
f 173/2/2 174/2/2 175/2/2
f 175/2/2 174/2/2 176/2/2
f 179/2/3 178/2/3 177/2/3
f 180/2/3 178/2/3 179/2/3
f 183/2/3 182/2/3 181/2/3
f 184/2/3 182/2/3 183/2/3
f 187/5/3 186/5/3 185/5/3
f 188/5/3 186/5/3 187/5/3
f 194/4/3 190/4/3 189/4/3
f 195/4/3 194/4/3 193/4/3
f 196/4/3 190/4/3 194/4/3
f 196/4/3 194/4/3 195/4/3
f 197/4/3 190/4/3 196/4/3
f 198/4/3 190/4/3 197/4/3
f 199/4/3 192/4/3 191/4/3
f 200/4/3 192/4/3 199/4/3
f 205/4/3 202/4/3 201/4/3
f 206/1/3 203/1/3 202/1/3
f 206/4/3 202/4/3 205/4/3
f 207/4/3 204/4/3 203/4/3
f 207/1/3 203/1/3 206/1/3
f 208/4/3 204/4/3 207/4/3
f 211/4/3 210/4/3 209/4/3
f 212/4/3 210/4/3 211/4/3
f 215/4/3 214/4/3 213/4/3
f 216/4/3 214/4/3 215/4/3
f 217/4/3 214/4/3 216/4/3
f 218/4/3 214/4/3 217/4/3
f 223/2/3 220/2/3 219/2/3
f 224/2/3 220/2/3 223/2/3
f 225/4/3 222/4/3 221/4/3
f 226/4/3 222/4/3 225/4/3
f 229/2/3 228/2/3 227/2/3
f 230/2/3 228/2/3 229/2/3
f 233/2/3 232/2/3 231/2/3
f 234/2/3 232/2/3 233/2/3
f 243/5/3 236/5/3 235/5/3
f 244/5/3 236/5/3 243/5/3
f 249/2/3 238/2/3 237/2/3
f 249/5/3 239/5/3 238/5/3
f 250/2/3 240/2/3 239/2/3
f 250/5/3 239/5/3 249/5/3
f 251/5/3 241/5/3 240/5/3
f 251/2/3 240/2/3 250/2/3
f 252/2/3 242/2/3 241/2/3
f 252/5/3 241/5/3 251/5/3
f 253/2/3 242/2/3 252/2/3
f 254/2/3 242/2/3 253/2/3
f 255/2/3 249/2/3 237/2/3
f 258/2/3 253/2/3 252/2/3
f 259/2/3 253/2/3 258/2/3
f 260/2/3 242/2/3 254/2/3
f 261/2/3 255/2/3 237/2/3
f 262/5/3 256/5/3 255/5/3
f 262/2/3 255/2/3 261/2/3
f 263/2/3 257/2/3 256/2/3
f 263/5/3 256/5/3 262/5/3
f 264/5/3 258/5/3 257/5/3
f 264/2/3 257/2/3 263/2/3
f 265/2/3 259/2/3 258/2/3
f 265/5/3 258/5/3 264/5/3
f 265/2/3 260/2/3 259/2/3
f 266/2/3 242/2/3 260/2/3
f 266/2/3 260/2/3 265/2/3
f 269/2/3 246/2/3 245/2/3
f 270/5/3 247/5/3 246/5/3
f 270/2/3 246/2/3 269/2/3
f 271/2/3 248/2/3 247/2/3
f 271/5/3 247/5/3 270/5/3
f 272/2/3 248/2/3 271/2/3
f 273/2/3 248/2/3 272/2/3
f 274/5/3 268/5/3 267/5/3
f 275/5/3 268/5/3 274/5/3
f 276/5/4 277/5/4 278/5/4
f 278/5/4 277/5/4 279/5/4
f 280/5/4 281/5/4 282/5/4
f 282/5/4 281/5/4 283/5/4
f 284/2/4 285/2/4 286/2/4
f 286/2/4 285/2/4 287/2/4
f 287/2/4 285/2/4 288/2/4
f 288/2/4 285/2/4 289/2/4
f 290/2/4 291/2/4 294/2/4
f 294/2/4 291/2/4 295/2/4
f 292/4/4 293/4/4 296/4/4
f 296/4/4 293/4/4 297/4/4
f 298/4/4 299/4/4 302/4/4
f 299/1/4 300/1/4 303/1/4
f 302/4/4 299/4/4 303/4/4
f 300/4/4 301/4/4 304/4/4
f 303/1/4 300/1/4 304/1/4
f 304/4/4 301/4/4 305/4/4
f 306/4/4 307/4/4 308/4/4
f 308/4/4 307/4/4 309/4/4
f 310/4/4 311/4/4 316/4/4
f 311/4/4 312/4/4 316/4/4
f 312/1/4 313/1/4 317/1/4
f 316/4/4 312/4/4 317/4/4
f 314/4/4 315/4/4 318/4/4
f 317/1/4 313/1/4 318/1/4
f 313/4/4 314/4/4 318/4/4
f 318/4/4 315/4/4 319/4/4
f 320/5/4 321/5/4 322/5/4
f 322/5/4 321/5/4 323/5/4
f 324/5/4 325/5/4 326/5/4
f 326/5/4 325/5/4 327/5/4
f 328/2/4 329/2/4 336/2/4
f 329/5/4 330/5/4 337/5/4
f 336/2/4 329/2/4 337/2/4
f 330/2/4 331/2/4 338/2/4
f 337/5/4 330/5/4 338/5/4
f 331/5/4 332/5/4 339/5/4
f 338/2/4 331/2/4 339/2/4
f 332/2/4 333/2/4 340/2/4
f 339/5/4 332/5/4 340/5/4
f 333/5/4 334/5/4 341/5/4
f 340/2/4 333/2/4 341/2/4
f 334/2/4 335/2/4 342/2/4
f 341/5/4 334/5/4 342/5/4
f 342/2/4 335/2/4 343/2/4
f 343/2/4 335/2/4 344/2/4
f 345/2/4 346/2/4 347/2/4
f 347/2/4 346/2/4 348/2/4
f 351/2/5 350/2/5 349/2/5
f 352/2/5 350/2/5 351/2/5
f 353/2/5 351/2/5 349/2/5
f 353/1/5 352/1/5 351/1/5
f 354/2/5 350/2/5 352/2/5
f 354/1/5 352/1/5 353/1/5
f 355/2/5 353/2/5 349/2/5
f 355/2/5 354/2/5 353/2/5
f 356/2/5 350/2/5 354/2/5
f 356/2/5 354/2/5 355/2/5
f 359/2/5 358/2/5 357/2/5
f 360/2/5 358/2/5 359/2/5
f 363/2/5 362/2/5 361/2/5
f 364/2/5 362/2/5 363/2/5
f 367/2/5 366/2/5 365/2/5
f 368/2/5 366/2/5 367/2/5
f 371/2/5 370/2/5 369/2/5
f 372/2/5 370/2/5 371/2/5
f 373/2/5 370/2/5 372/2/5
f 374/2/5 370/2/5 373/2/5
f 377/4/5 376/4/5 375/4/5
f 378/4/5 376/4/5 377/4/5
f 381/4/5 380/4/5 379/4/5
f 382/4/5 380/4/5 381/4/5
f 385/4/5 384/4/5 383/4/5
f 386/4/5 384/4/5 385/4/5
f 392/4/5 388/4/5 387/4/5
f 393/4/5 390/4/5 389/4/5
f 395/4/5 392/4/5 391/4/5
f 395/4/5 388/4/5 392/4/5
f 396/4/5 394/4/5 393/4/5
f 396/4/5 393/4/5 389/4/5
f 397/4/5 395/4/5 391/4/5
f 397/4/5 396/4/5 395/4/5
f 398/4/5 396/4/5 397/4/5
f 399/4/5 394/4/5 396/4/5
f 399/4/5 396/4/5 398/4/5
f 400/4/5 394/4/5 399/4/5
f 401/4/5 399/4/5 398/4/5
f 402/4/5 399/4/5 401/4/5
f 405/5/5 404/5/5 403/5/5
f 406/5/5 404/5/5 405/5/5
f 407/5/5 404/5/5 406/5/5
f 408/5/5 404/5/5 407/5/5
f 409/5/5 405/5/5 403/5/5
f 410/5/5 404/5/5 408/5/5
f 411/5/5 409/5/5 403/5/5
f 412/5/5 404/5/5 410/5/5
f 413/5/5 411/5/5 403/5/5
f 416/5/5 404/5/5 412/5/5
f 417/5/5 414/5/5 413/5/5
f 417/5/5 413/5/5 403/5/5
f 418/5/5 414/5/5 417/5/5
f 419/5/5 416/5/5 415/5/5
f 420/5/5 404/5/5 416/5/5
f 420/5/5 416/5/5 419/5/5
f 423/2/5 422/2/5 421/2/5
f 424/2/5 422/2/5 423/2/5
f 425/2/5 422/2/5 424/2/5
f 426/2/5 422/2/5 425/2/5
f 427/2/6 428/2/6 429/2/6
f 429/2/6 428/2/6 430/2/6
f 431/2/6 432/2/6 433/2/6
f 433/2/6 432/2/6 434/2/6
f 435/2/6 436/2/6 437/2/6
f 437/2/6 436/2/6 438/2/6
f 439/4/6 440/4/6 441/4/6
f 441/4/6 440/4/6 442/4/6
f 443/4/6 444/4/6 445/4/6
f 445/4/6 444/4/6 446/4/6
f 447/5/6 448/5/6 449/5/6
f 449/5/6 448/5/6 450/5/6
f 450/5/6 448/5/6 451/5/6
f 451/5/6 448/5/6 452/5/6
f 447/5/6 449/5/6 453/5/6
f 452/5/6 448/5/6 454/5/6
f 447/5/6 453/5/6 455/5/6
f 454/5/6 448/5/6 456/5/6
f 447/5/6 455/5/6 457/5/6
f 456/5/6 448/5/6 460/5/6
f 457/5/6 458/5/6 461/5/6
f 447/5/6 457/5/6 461/5/6
f 461/5/6 458/5/6 462/5/6
f 459/5/6 460/5/6 463/5/6
f 460/5/6 448/5/6 464/5/6
f 463/5/6 460/5/6 464/5/6
f 465/4/6 466/4/6 468/4/6
f 468/4/6 466/4/6 469/4/6
f 467/4/6 468/4/6 471/4/6
f 469/4/6 470/4/6 471/4/6
f 468/4/6 469/4/6 471/4/6
f 471/4/6 470/4/6 472/4/6
f 472/4/6 470/4/6 473/4/6
f 473/4/6 470/4/6 474/4/6
f 472/4/6 473/4/6 475/4/6
f 475/4/6 473/4/6 476/4/6
f 477/2/6 478/2/6 480/2/6
f 479/2/6 480/2/6 481/2/6
f 480/2/6 478/2/6 482/2/6
f 481/2/6 480/2/6 482/2/6
f 482/2/6 478/2/6 483/2/6
f 483/2/6 478/2/6 484/2/6
