# MagicaVoxel @ Ephtracy

# group
o 

# material
mtllib Barricade.mtl
usemtl palette

# normals
vn -1 0 0
vn 1 0 0
vn 0 0 1
vn 0 0 -1
vn 0 -1 0
vn 0 1 0

# texcoords
vt 0.314453 0.5
vt 0.322266 0.5

# verts
v 2.9 2.1 -1.1
v 2.9 2.1 -2.5
v 2.9 2.2 -1.1
v 2.9 2.2 -1.7
v 2.9 2.2 -2
v 2.9 2.2 -2.5
v 2.9 4.3 -1.9
v 2.9 4.3 -2
v 2.9 4.4 -1.7
v 2.9 4.4 -1.9
v 3 4.3 -1.9
v 3 4.3 -2
v 3 4.4 -1.9
v 3 4.4 -2
v 3.2 2.9 -1.8
v 3.2 2.9 -1.9
v 3.2 4.2 -1.8
v 3.2 4.2 -1.9
v 3.4 2.9 -1.8
v 3.4 2.9 -1.9
v 3.4 4.2 -1.8
v 3.4 4.2 -1.9
v 3.6 2.9 -1.8
v 3.6 2.9 -1.9
v 3.6 4.2 -1.8
v 3.6 4.2 -1.9
v 3.8 2.9 -1.8
v 3.8 2.9 -1.9
v 3.8 4.2 -1.8
v 3.8 4.2 -1.9
v 4 2.9 -1.8
v 4 2.9 -1.9
v 4 4.2 -1.8
v 4 4.2 -1.9
v 4.2 2.9 -1.8
v 4.2 2.9 -1.9
v 4.2 4.2 -1.8
v 4.2 4.2 -1.9
v 4.4 2.9 -1.8
v 4.4 2.9 -1.9
v 4.4 4.2 -1.8
v 4.4 4.2 -1.9
v 4.6 2.9 -1.8
v 4.6 2.9 -1.9
v 4.6 4.2 -1.8
v 4.6 4.2 -1.9
v 4.8 2.9 -1.8
v 4.8 2.9 -1.9
v 4.8 4.2 -1.8
v 4.8 4.2 -1.9
v 5 2.9 -1.8
v 5 2.9 -1.9
v 5 4.2 -1.8
v 5 4.2 -1.9
v 5.2 2.9 -1.8
v 5.2 2.9 -1.9
v 5.2 4.2 -1.8
v 5.2 4.2 -1.9
v 5.4 2.9 -1.8
v 5.4 2.9 -1.9
v 5.4 4.2 -1.8
v 5.4 4.2 -1.9
v 5.6 2.9 -1.8
v 5.6 2.9 -1.9
v 5.6 4.2 -1.8
v 5.6 4.2 -1.9
v 5.8 2.9 -1.8
v 5.8 2.9 -1.9
v 5.8 4.2 -1.8
v 5.8 4.2 -1.9
v 6 2.9 -1.8
v 6 2.9 -1.9
v 6 4.2 -1.8
v 6 4.2 -1.9
v 6.2 2.9 -1.8
v 6.2 2.9 -1.9
v 6.2 4.2 -1.8
v 6.2 4.2 -1.9
v 6.4 2.9 -1.8
v 6.4 2.9 -1.9
v 6.4 4.2 -1.8
v 6.4 4.2 -1.9
v 6.6 2.9 -1.8
v 6.6 2.9 -1.9
v 6.6 4.2 -1.8
v 6.6 4.2 -1.9
v 6.8 2.9 -1.8
v 6.8 2.9 -1.9
v 6.8 4.2 -1.8
v 6.8 4.2 -1.9
v 7 2.9 -1.8
v 7 2.9 -1.9
v 7 4.2 -1.8
v 7 4.2 -1.9
v 7.2 2.9 -1.8
v 7.2 2.9 -1.9
v 7.2 4.2 -1.8
v 7.2 4.2 -1.9
v 7.4 2 -1.1
v 7.4 2 -2.5
v 7.4 2.2 -1.1
v 7.4 2.2 -1.7
v 7.4 2.2 -2
v 7.4 2.2 -2.5
v 7.4 2.7 -1.7
v 7.4 2.7 -2
v 7.4 2.9 -1.7
v 7.4 2.9 -2
v 7.4 4.2 -1.7
v 7.4 4.2 -2
v 3.1 2.1 -1.1
v 3.1 2.1 -2.5
v 3.1 2.2 -1.1
v 3.1 2.2 -1.7
v 3.1 2.2 -2
v 3.1 2.2 -2.5
v 3.1 2.7 -1.7
v 3.1 2.7 -2
v 3.1 2.9 -1.7
v 3.1 2.9 -2
v 3.1 4.2 -1.7
v 3.1 4.2 -2
v 3.3 2.9 -1.8
v 3.3 2.9 -1.9
v 3.3 4.2 -1.8
v 3.3 4.2 -1.9
v 3.5 2.9 -1.8
v 3.5 2.9 -1.9
v 3.5 4.2 -1.8
v 3.5 4.2 -1.9
v 3.7 2.9 -1.8
v 3.7 2.9 -1.9
v 3.7 4.2 -1.8
v 3.7 4.2 -1.9
v 3.9 2.9 -1.8
v 3.9 2.9 -1.9
v 3.9 4.2 -1.8
v 3.9 4.2 -1.9
v 4.1 2.9 -1.8
v 4.1 2.9 -1.9
v 4.1 4.2 -1.8
v 4.1 4.2 -1.9
v 4.3 2.9 -1.8
v 4.3 2.9 -1.9
v 4.3 4.2 -1.8
v 4.3 4.2 -1.9
v 4.5 2.9 -1.8
v 4.5 2.9 -1.9
v 4.5 4.2 -1.8
v 4.5 4.2 -1.9
v 4.7 2.9 -1.8
v 4.7 2.9 -1.9
v 4.7 4.2 -1.8
v 4.7 4.2 -1.9
v 4.9 2.9 -1.8
v 4.9 2.9 -1.9
v 4.9 4.2 -1.8
v 4.9 4.2 -1.9
v 5.1 2.9 -1.8
v 5.1 2.9 -1.9
v 5.1 4.2 -1.8
v 5.1 4.2 -1.9
v 5.3 2.9 -1.8
v 5.3 2.9 -1.9
v 5.3 4.2 -1.8
v 5.3 4.2 -1.9
v 5.5 2.9 -1.8
v 5.5 2.9 -1.9
v 5.5 4.2 -1.8
v 5.5 4.2 -1.9
v 5.7 2.9 -1.8
v 5.7 2.9 -1.9
v 5.7 4.2 -1.8
v 5.7 4.2 -1.9
v 5.9 2.9 -1.8
v 5.9 2.9 -1.9
v 5.9 4.2 -1.8
v 5.9 4.2 -1.9
v 6.1 2.9 -1.8
v 6.1 2.9 -1.9
v 6.1 4.2 -1.8
v 6.1 4.2 -1.9
v 6.3 2.9 -1.8
v 6.3 2.9 -1.9
v 6.3 4.2 -1.8
v 6.3 4.2 -1.9
v 6.5 2.9 -1.8
v 6.5 2.9 -1.9
v 6.5 4.2 -1.8
v 6.5 4.2 -1.9
v 6.7 2.9 -1.8
v 6.7 2.9 -1.9
v 6.7 4.2 -1.8
v 6.7 4.2 -1.9
v 6.9 2.9 -1.8
v 6.9 2.9 -1.9
v 6.9 4.2 -1.8
v 6.9 4.2 -1.9
v 7.1 2.9 -1.8
v 7.1 2.9 -1.9
v 7.1 4.2 -1.8
v 7.1 4.2 -1.9
v 7.3 2.9 -1.8
v 7.3 2.9 -1.9
v 7.3 4.2 -1.8
v 7.3 4.2 -1.9
v 7.5 4.3 -1.7
v 7.5 4.3 -1.8
v 7.5 4.3 -1.9
v 7.5 4.3 -2
v 7.5 4.4 -1.7
v 7.5 4.4 -1.8
v 7.5 4.4 -1.9
v 7.5 4.4 -2
v 7.6 2 -1.1
v 7.6 2 -2.5
v 7.6 2.2 -1.1
v 7.6 2.2 -1.7
v 7.6 2.2 -2
v 7.6 2.2 -2.5
v 7.6 4.3 -1.7
v 7.6 4.3 -1.8
v 7.6 4.3 -1.9
v 7.6 4.3 -2
v 7.6 4.4 -1.8
v 7.6 4.4 -1.9
v 2.9 2.1 -1.1
v 2.9 2.2 -1.1
v 3.1 2.1 -1.1
v 3.1 2.2 -1.1
v 7.4 2 -1.1
v 7.4 2.2 -1.1
v 7.6 2 -1.1
v 7.6 2.2 -1.1
v 2.9 2.2 -1.7
v 2.9 4.4 -1.7
v 3.1 2.2 -1.7
v 3.1 2.7 -1.7
v 3.1 2.9 -1.7
v 3.1 4.2 -1.7
v 7.4 2.2 -1.7
v 7.4 2.7 -1.7
v 7.4 2.9 -1.7
v 7.4 4.2 -1.7
v 7.5 4.3 -1.7
v 7.5 4.4 -1.7
v 7.6 2.2 -1.7
v 7.6 4.3 -1.7
v 3.2 2.9 -1.8
v 3.2 4.2 -1.8
v 3.3 2.9 -1.8
v 3.3 4.2 -1.8
v 3.4 2.9 -1.8
v 3.4 4.2 -1.8
v 3.5 2.9 -1.8
v 3.5 4.2 -1.8
v 3.6 2.9 -1.8
v 3.6 4.2 -1.8
v 3.7 2.9 -1.8
v 3.7 4.2 -1.8
v 3.8 2.9 -1.8
v 3.8 4.2 -1.8
v 3.9 2.9 -1.8
v 3.9 4.2 -1.8
v 4 2.9 -1.8
v 4 4.2 -1.8
v 4.1 2.9 -1.8
v 4.1 4.2 -1.8
v 4.2 2.9 -1.8
v 4.2 4.2 -1.8
v 4.3 2.9 -1.8
v 4.3 4.2 -1.8
v 4.4 2.9 -1.8
v 4.4 4.2 -1.8
v 4.5 2.9 -1.8
v 4.5 4.2 -1.8
v 4.6 2.9 -1.8
v 4.6 4.2 -1.8
v 4.7 2.9 -1.8
v 4.7 4.2 -1.8
v 4.8 2.9 -1.8
v 4.8 4.2 -1.8
v 4.9 2.9 -1.8
v 4.9 4.2 -1.8
v 5 2.9 -1.8
v 5 4.2 -1.8
v 5.1 2.9 -1.8
v 5.1 4.2 -1.8
v 5.2 2.9 -1.8
v 5.2 4.2 -1.8
v 5.3 2.9 -1.8
v 5.3 4.2 -1.8
v 5.4 2.9 -1.8
v 5.4 4.2 -1.8
v 5.5 2.9 -1.8
v 5.5 4.2 -1.8
v 5.6 2.9 -1.8
v 5.6 4.2 -1.8
v 5.7 2.9 -1.8
v 5.7 4.2 -1.8
v 5.8 2.9 -1.8
v 5.8 4.2 -1.8
v 5.9 2.9 -1.8
v 5.9 4.2 -1.8
v 6 2.9 -1.8
v 6 4.2 -1.8
v 6.1 2.9 -1.8
v 6.1 4.2 -1.8
v 6.2 2.9 -1.8
v 6.2 4.2 -1.8
v 6.3 2.9 -1.8
v 6.3 4.2 -1.8
v 6.4 2.9 -1.8
v 6.4 4.2 -1.8
v 6.5 2.9 -1.8
v 6.5 4.2 -1.8
v 6.6 2.9 -1.8
v 6.6 4.2 -1.8
v 6.7 2.9 -1.8
v 6.7 4.2 -1.8
v 6.8 2.9 -1.8
v 6.8 4.2 -1.8
v 6.9 2.9 -1.8
v 6.9 4.2 -1.8
v 7 2.9 -1.8
v 7 4.2 -1.8
v 7.1 2.9 -1.8
v 7.1 4.2 -1.8
v 7.2 2.9 -1.8
v 7.2 4.2 -1.8
v 7.3 2.9 -1.8
v 7.3 4.2 -1.8
v 7.5 4.3 -1.8
v 7.5 4.4 -1.8
v 7.6 4.3 -1.8
v 7.6 4.4 -1.8
v 2.9 4.3 -1.9
v 2.9 4.4 -1.9
v 3 4.3 -1.9
v 3 4.4 -1.9
v 3.2 2.9 -1.9
v 3.2 4.2 -1.9
v 3.3 2.9 -1.9
v 3.3 4.2 -1.9
v 3.4 2.9 -1.9
v 3.4 4.2 -1.9
v 3.5 2.9 -1.9
v 3.5 4.2 -1.9
v 3.6 2.9 -1.9
v 3.6 4.2 -1.9
v 3.7 2.9 -1.9
v 3.7 4.2 -1.9
v 3.8 2.9 -1.9
v 3.8 4.2 -1.9
v 3.9 2.9 -1.9
v 3.9 4.2 -1.9
v 4 2.9 -1.9
v 4 4.2 -1.9
v 4.1 2.9 -1.9
v 4.1 4.2 -1.9
v 4.2 2.9 -1.9
v 4.2 4.2 -1.9
v 4.3 2.9 -1.9
v 4.3 4.2 -1.9
v 4.4 2.9 -1.9
v 4.4 4.2 -1.9
v 4.5 2.9 -1.9
v 4.5 4.2 -1.9
v 4.6 2.9 -1.9
v 4.6 4.2 -1.9
v 4.7 2.9 -1.9
v 4.7 4.2 -1.9
v 4.8 2.9 -1.9
v 4.8 4.2 -1.9
v 4.9 2.9 -1.9
v 4.9 4.2 -1.9
v 5 2.9 -1.9
v 5 4.2 -1.9
v 5.1 2.9 -1.9
v 5.1 4.2 -1.9
v 5.2 2.9 -1.9
v 5.2 4.2 -1.9
v 5.3 2.9 -1.9
v 5.3 4.2 -1.9
v 5.4 2.9 -1.9
v 5.4 4.2 -1.9
v 5.5 2.9 -1.9
v 5.5 4.2 -1.9
v 5.6 2.9 -1.9
v 5.6 4.2 -1.9
v 5.7 2.9 -1.9
v 5.7 4.2 -1.9
v 5.8 2.9 -1.9
v 5.8 4.2 -1.9
v 5.9 2.9 -1.9
v 5.9 4.2 -1.9
v 6 2.9 -1.9
v 6 4.2 -1.9
v 6.1 2.9 -1.9
v 6.1 4.2 -1.9
v 6.2 2.9 -1.9
v 6.2 4.2 -1.9
v 6.3 2.9 -1.9
v 6.3 4.2 -1.9
v 6.4 2.9 -1.9
v 6.4 4.2 -1.9
v 6.5 2.9 -1.9
v 6.5 4.2 -1.9
v 6.6 2.9 -1.9
v 6.6 4.2 -1.9
v 6.7 2.9 -1.9
v 6.7 4.2 -1.9
v 6.8 2.9 -1.9
v 6.8 4.2 -1.9
v 6.9 2.9 -1.9
v 6.9 4.2 -1.9
v 7 2.9 -1.9
v 7 4.2 -1.9
v 7.1 2.9 -1.9
v 7.1 4.2 -1.9
v 7.2 2.9 -1.9
v 7.2 4.2 -1.9
v 7.3 2.9 -1.9
v 7.3 4.2 -1.9
v 7.5 4.3 -1.9
v 7.5 4.4 -1.9
v 7.6 4.3 -1.9
v 7.6 4.4 -1.9
v 2.9 2.2 -2
v 2.9 4.3 -2
v 3 4.3 -2
v 3 4.4 -2
v 3.1 2.2 -2
v 3.1 2.7 -2
v 3.1 2.9 -2
v 3.1 4.2 -2
v 7.4 2.2 -2
v 7.4 2.7 -2
v 7.4 2.9 -2
v 7.4 4.2 -2
v 7.5 4.3 -2
v 7.5 4.4 -2
v 7.6 2.2 -2
v 7.6 4.3 -2
v 2.9 2.1 -2.5
v 2.9 2.2 -2.5
v 3.1 2.1 -2.5
v 3.1 2.2 -2.5
v 7.4 2 -2.5
v 7.4 2.2 -2.5
v 7.6 2 -2.5
v 7.6 2.2 -2.5
v 7.4 2 -1.1
v 7.6 2 -1.1
v 7.4 2 -2.5
v 7.6 2 -2.5
v 2.9 2.1 -1.1
v 3.1 2.1 -1.1
v 2.9 2.1 -2.5
v 3.1 2.1 -2.5
v 3.1 2.7 -1.7
v 7.4 2.7 -1.7
v 3.1 2.7 -2
v 7.4 2.7 -2
v 3.1 4.2 -1.7
v 7.4 4.2 -1.7
v 3.2 4.2 -1.8
v 3.3 4.2 -1.8
v 3.4 4.2 -1.8
v 3.5 4.2 -1.8
v 3.6 4.2 -1.8
v 3.7 4.2 -1.8
v 3.8 4.2 -1.8
v 3.9 4.2 -1.8
v 4 4.2 -1.8
v 4.1 4.2 -1.8
v 4.2 4.2 -1.8
v 4.3 4.2 -1.8
v 4.4 4.2 -1.8
v 4.5 4.2 -1.8
v 4.6 4.2 -1.8
v 4.7 4.2 -1.8
v 4.8 4.2 -1.8
v 4.9 4.2 -1.8
v 5 4.2 -1.8
v 5.1 4.2 -1.8
v 5.2 4.2 -1.8
v 5.3 4.2 -1.8
v 5.4 4.2 -1.8
v 5.5 4.2 -1.8
v 5.6 4.2 -1.8
v 5.7 4.2 -1.8
v 5.8 4.2 -1.8
v 5.9 4.2 -1.8
v 6 4.2 -1.8
v 6.1 4.2 -1.8
v 6.2 4.2 -1.8
v 6.3 4.2 -1.8
v 6.4 4.2 -1.8
v 6.5 4.2 -1.8
v 6.6 4.2 -1.8
v 6.7 4.2 -1.8
v 6.8 4.2 -1.8
v 6.9 4.2 -1.8
v 7 4.2 -1.8
v 7.1 4.2 -1.8
v 7.2 4.2 -1.8
v 7.3 4.2 -1.8
v 3.2 4.2 -1.9
v 3.3 4.2 -1.9
v 3.4 4.2 -1.9
v 3.5 4.2 -1.9
v 3.6 4.2 -1.9
v 3.7 4.2 -1.9
v 3.8 4.2 -1.9
v 3.9 4.2 -1.9
v 4 4.2 -1.9
v 4.1 4.2 -1.9
v 4.2 4.2 -1.9
v 4.3 4.2 -1.9
v 4.4 4.2 -1.9
v 4.5 4.2 -1.9
v 4.6 4.2 -1.9
v 4.7 4.2 -1.9
v 4.8 4.2 -1.9
v 4.9 4.2 -1.9
v 5 4.2 -1.9
v 5.1 4.2 -1.9
v 5.2 4.2 -1.9
v 5.3 4.2 -1.9
v 5.4 4.2 -1.9
v 5.5 4.2 -1.9
v 5.6 4.2 -1.9
v 5.7 4.2 -1.9
v 5.8 4.2 -1.9
v 5.9 4.2 -1.9
v 6 4.2 -1.9
v 6.1 4.2 -1.9
v 6.2 4.2 -1.9
v 6.3 4.2 -1.9
v 6.4 4.2 -1.9
v 6.5 4.2 -1.9
v 6.6 4.2 -1.9
v 6.7 4.2 -1.9
v 6.8 4.2 -1.9
v 6.9 4.2 -1.9
v 7 4.2 -1.9
v 7.1 4.2 -1.9
v 7.2 4.2 -1.9
v 7.3 4.2 -1.9
v 3.1 4.2 -2
v 7.4 4.2 -2
v 2.9 2.2 -1.1
v 3.1 2.2 -1.1
v 7.4 2.2 -1.1
v 7.6 2.2 -1.1
v 2.9 2.2 -1.7
v 3.1 2.2 -1.7
v 7.4 2.2 -1.7
v 7.6 2.2 -1.7
v 2.9 2.2 -2
v 3.1 2.2 -2
v 7.4 2.2 -2
v 7.6 2.2 -2
v 2.9 2.2 -2.5
v 3.1 2.2 -2.5
v 7.4 2.2 -2.5
v 7.6 2.2 -2.5
v 3.1 2.9 -1.7
v 7.4 2.9 -1.7
v 3.2 2.9 -1.8
v 3.3 2.9 -1.8
v 3.4 2.9 -1.8
v 3.5 2.9 -1.8
v 3.6 2.9 -1.8
v 3.7 2.9 -1.8
v 3.8 2.9 -1.8
v 3.9 2.9 -1.8
v 4 2.9 -1.8
v 4.1 2.9 -1.8
v 4.2 2.9 -1.8
v 4.3 2.9 -1.8
v 4.4 2.9 -1.8
v 4.5 2.9 -1.8
v 4.6 2.9 -1.8
v 4.7 2.9 -1.8
v 4.8 2.9 -1.8
v 4.9 2.9 -1.8
v 5 2.9 -1.8
v 5.1 2.9 -1.8
v 5.2 2.9 -1.8
v 5.3 2.9 -1.8
v 5.4 2.9 -1.8
v 5.5 2.9 -1.8
v 5.6 2.9 -1.8
v 5.7 2.9 -1.8
v 5.8 2.9 -1.8
v 5.9 2.9 -1.8
v 6 2.9 -1.8
v 6.1 2.9 -1.8
v 6.2 2.9 -1.8
v 6.3 2.9 -1.8
v 6.4 2.9 -1.8
v 6.5 2.9 -1.8
v 6.6 2.9 -1.8
v 6.7 2.9 -1.8
v 6.8 2.9 -1.8
v 6.9 2.9 -1.8
v 7 2.9 -1.8
v 7.1 2.9 -1.8
v 7.2 2.9 -1.8
v 7.3 2.9 -1.8
v 3.2 2.9 -1.9
v 3.3 2.9 -1.9
v 3.4 2.9 -1.9
v 3.5 2.9 -1.9
v 3.6 2.9 -1.9
v 3.7 2.9 -1.9
v 3.8 2.9 -1.9
v 3.9 2.9 -1.9
v 4 2.9 -1.9
v 4.1 2.9 -1.9
v 4.2 2.9 -1.9
v 4.3 2.9 -1.9
v 4.4 2.9 -1.9
v 4.5 2.9 -1.9
v 4.6 2.9 -1.9
v 4.7 2.9 -1.9
v 4.8 2.9 -1.9
v 4.9 2.9 -1.9
v 5 2.9 -1.9
v 5.1 2.9 -1.9
v 5.2 2.9 -1.9
v 5.3 2.9 -1.9
v 5.4 2.9 -1.9
v 5.5 2.9 -1.9
v 5.6 2.9 -1.9
v 5.7 2.9 -1.9
v 5.8 2.9 -1.9
v 5.9 2.9 -1.9
v 6 2.9 -1.9
v 6.1 2.9 -1.9
v 6.2 2.9 -1.9
v 6.3 2.9 -1.9
v 6.4 2.9 -1.9
v 6.5 2.9 -1.9
v 6.6 2.9 -1.9
v 6.7 2.9 -1.9
v 6.8 2.9 -1.9
v 6.9 2.9 -1.9
v 7 2.9 -1.9
v 7.1 2.9 -1.9
v 7.2 2.9 -1.9
v 7.3 2.9 -1.9
v 3.1 2.9 -2
v 7.4 2.9 -2
v 7.5 4.3 -1.7
v 7.6 4.3 -1.7
v 7.5 4.3 -1.8
v 7.6 4.3 -1.8
v 2.9 4.3 -1.9
v 3 4.3 -1.9
v 7.5 4.3 -1.9
v 7.6 4.3 -1.9
v 2.9 4.3 -2
v 3 4.3 -2
v 7.5 4.3 -2
v 7.6 4.3 -2
v 2.9 4.4 -1.7
v 7.5 4.4 -1.7
v 7.5 4.4 -1.8
v 7.6 4.4 -1.8
v 2.9 4.4 -1.9
v 3 4.4 -1.9
v 7.5 4.4 -1.9
v 7.6 4.4 -1.9
v 3 4.4 -2
v 7.5 4.4 -2

# faces
f 3/2/1 2/2/1 1/2/1
f 4/2/1 2/2/1 3/2/1
f 5/2/1 2/2/1 4/2/1
f 6/2/1 2/2/1 5/2/1
f 7/2/1 5/2/1 4/2/1
f 8/2/1 5/2/1 7/2/1
f 9/2/1 7/2/1 4/2/1
f 10/2/1 7/2/1 9/2/1
f 13/2/1 12/2/1 11/2/1
f 14/2/1 12/2/1 13/2/1
f 17/1/1 16/1/1 15/1/1
f 18/1/1 16/1/1 17/1/1
f 21/1/1 20/1/1 19/1/1
f 22/1/1 20/1/1 21/1/1
f 25/1/1 24/1/1 23/1/1
f 26/1/1 24/1/1 25/1/1
f 29/1/1 28/1/1 27/1/1
f 30/1/1 28/1/1 29/1/1
f 33/1/1 32/1/1 31/1/1
f 34/1/1 32/1/1 33/1/1
f 37/1/1 36/1/1 35/1/1
f 38/1/1 36/1/1 37/1/1
f 41/1/1 40/1/1 39/1/1
f 42/1/1 40/1/1 41/1/1
f 45/1/1 44/1/1 43/1/1
f 46/1/1 44/1/1 45/1/1
f 49/1/1 48/1/1 47/1/1
f 50/1/1 48/1/1 49/1/1
f 53/1/1 52/1/1 51/1/1
f 54/1/1 52/1/1 53/1/1
f 57/1/1 56/1/1 55/1/1
f 58/1/1 56/1/1 57/1/1
f 61/1/1 60/1/1 59/1/1
f 62/1/1 60/1/1 61/1/1
f 65/1/1 64/1/1 63/1/1
f 66/1/1 64/1/1 65/1/1
f 69/1/1 68/1/1 67/1/1
f 70/1/1 68/1/1 69/1/1
f 73/1/1 72/1/1 71/1/1
f 74/1/1 72/1/1 73/1/1
f 77/1/1 76/1/1 75/1/1
f 78/1/1 76/1/1 77/1/1
f 81/1/1 80/1/1 79/1/1
f 82/1/1 80/1/1 81/1/1
f 85/1/1 84/1/1 83/1/1
f 86/1/1 84/1/1 85/1/1
f 89/1/1 88/1/1 87/1/1
f 90/1/1 88/1/1 89/1/1
f 93/1/1 92/1/1 91/1/1
f 94/1/1 92/1/1 93/1/1
f 97/1/1 96/1/1 95/1/1
f 98/1/1 96/1/1 97/1/1
f 101/2/1 100/2/1 99/2/1
f 102/2/1 100/2/1 101/2/1
f 103/2/1 100/2/1 102/2/1
f 104/2/1 100/2/1 103/2/1
f 105/2/1 103/2/1 102/2/1
f 106/2/1 103/2/1 105/2/1
f 109/2/1 108/2/1 107/2/1
f 110/2/1 108/2/1 109/2/1
f 111/2/2 112/2/2 113/2/2
f 113/2/2 112/2/2 114/2/2
f 114/2/2 112/2/2 115/2/2
f 115/2/2 112/2/2 116/2/2
f 114/2/2 115/2/2 117/2/2
f 117/2/2 115/2/2 118/2/2
f 119/2/2 120/2/2 121/2/2
f 121/2/2 120/2/2 122/2/2
f 123/1/2 124/1/2 125/1/2
f 125/1/2 124/1/2 126/1/2
f 127/1/2 128/1/2 129/1/2
f 129/1/2 128/1/2 130/1/2
f 131/1/2 132/1/2 133/1/2
f 133/1/2 132/1/2 134/1/2
f 135/1/2 136/1/2 137/1/2
f 137/1/2 136/1/2 138/1/2
f 139/1/2 140/1/2 141/1/2
f 141/1/2 140/1/2 142/1/2
f 143/1/2 144/1/2 145/1/2
f 145/1/2 144/1/2 146/1/2
f 147/1/2 148/1/2 149/1/2
f 149/1/2 148/1/2 150/1/2
f 151/1/2 152/1/2 153/1/2
f 153/1/2 152/1/2 154/1/2
f 155/1/2 156/1/2 157/1/2
f 157/1/2 156/1/2 158/1/2
f 159/1/2 160/1/2 161/1/2
f 161/1/2 160/1/2 162/1/2
f 163/1/2 164/1/2 165/1/2
f 165/1/2 164/1/2 166/1/2
f 167/1/2 168/1/2 169/1/2
f 169/1/2 168/1/2 170/1/2
f 171/1/2 172/1/2 173/1/2
f 173/1/2 172/1/2 174/1/2
f 175/1/2 176/1/2 177/1/2
f 177/1/2 176/1/2 178/1/2
f 179/1/2 180/1/2 181/1/2
f 181/1/2 180/1/2 182/1/2
f 183/1/2 184/1/2 185/1/2
f 185/1/2 184/1/2 186/1/2
f 187/1/2 188/1/2 189/1/2
f 189/1/2 188/1/2 190/1/2
f 191/1/2 192/1/2 193/1/2
f 193/1/2 192/1/2 194/1/2
f 195/1/2 196/1/2 197/1/2
f 197/1/2 196/1/2 198/1/2
f 199/1/2 200/1/2 201/1/2
f 201/1/2 200/1/2 202/1/2
f 203/1/2 204/1/2 205/1/2
f 205/1/2 204/1/2 206/1/2
f 207/2/2 208/2/2 211/2/2
f 211/2/2 208/2/2 212/2/2
f 209/2/2 210/2/2 213/2/2
f 213/2/2 210/2/2 214/2/2
f 215/2/2 216/2/2 217/2/2
f 217/2/2 216/2/2 218/2/2
f 218/2/2 216/2/2 219/2/2
f 219/2/2 216/2/2 220/2/2
f 218/2/2 219/2/2 221/2/2
f 221/2/2 219/2/2 222/2/2
f 222/2/2 219/2/2 223/2/2
f 223/2/2 219/2/2 224/2/2
f 222/2/2 223/2/2 225/2/2
f 225/2/2 223/2/2 226/2/2
f 229/2/3 228/2/3 227/2/3
f 230/2/3 228/2/3 229/2/3
f 233/2/3 232/2/3 231/2/3
f 234/2/3 232/2/3 233/2/3
f 237/2/3 236/2/3 235/2/3
f 238/2/3 236/2/3 237/2/3
f 239/2/3 236/2/3 238/2/3
f 240/2/3 236/2/3 239/2/3
f 242/2/3 239/2/3 238/2/3
f 243/2/3 239/2/3 242/2/3
f 244/2/3 236/2/3 240/2/3
f 245/2/3 243/2/3 242/2/3
f 245/2/3 244/2/3 243/2/3
f 245/2/3 236/2/3 244/2/3
f 245/2/3 242/2/3 241/2/3
f 246/2/3 236/2/3 245/2/3
f 247/2/3 245/2/3 241/2/3
f 248/2/3 245/2/3 247/2/3
f 251/1/3 250/1/3 249/1/3
f 252/1/3 250/1/3 251/1/3
f 255/1/3 254/1/3 253/1/3
f 256/1/3 254/1/3 255/1/3
f 259/1/3 258/1/3 257/1/3
f 260/1/3 258/1/3 259/1/3
f 263/1/3 262/1/3 261/1/3
f 264/1/3 262/1/3 263/1/3
f 267/1/3 266/1/3 265/1/3
f 268/1/3 266/1/3 267/1/3
f 271/1/3 270/1/3 269/1/3
f 272/1/3 270/1/3 271/1/3
f 275/1/3 274/1/3 273/1/3
f 276/1/3 274/1/3 275/1/3
f 279/1/3 278/1/3 277/1/3
f 280/1/3 278/1/3 279/1/3
f 283/1/3 282/1/3 281/1/3
f 284/1/3 282/1/3 283/1/3
f 287/1/3 286/1/3 285/1/3
f 288/1/3 286/1/3 287/1/3
f 291/1/3 290/1/3 289/1/3
f 292/1/3 290/1/3 291/1/3
f 295/1/3 294/1/3 293/1/3
f 296/1/3 294/1/3 295/1/3
f 299/1/3 298/1/3 297/1/3
f 300/1/3 298/1/3 299/1/3
f 303/1/3 302/1/3 301/1/3
f 304/1/3 302/1/3 303/1/3
f 307/1/3 306/1/3 305/1/3
f 308/1/3 306/1/3 307/1/3
f 311/1/3 310/1/3 309/1/3
f 312/1/3 310/1/3 311/1/3
f 315/1/3 314/1/3 313/1/3
f 316/1/3 314/1/3 315/1/3
f 319/1/3 318/1/3 317/1/3
f 320/1/3 318/1/3 319/1/3
f 323/1/3 322/1/3 321/1/3
f 324/1/3 322/1/3 323/1/3
f 327/1/3 326/1/3 325/1/3
f 328/1/3 326/1/3 327/1/3
f 331/1/3 330/1/3 329/1/3
f 332/1/3 330/1/3 331/1/3
f 335/2/3 334/2/3 333/2/3
f 336/2/3 334/2/3 335/2/3
f 337/2/4 338/2/4 339/2/4
f 339/2/4 338/2/4 340/2/4
f 341/1/4 342/1/4 343/1/4
f 343/1/4 342/1/4 344/1/4
f 345/1/4 346/1/4 347/1/4
f 347/1/4 346/1/4 348/1/4
f 349/1/4 350/1/4 351/1/4
f 351/1/4 350/1/4 352/1/4
f 353/1/4 354/1/4 355/1/4
f 355/1/4 354/1/4 356/1/4
f 357/1/4 358/1/4 359/1/4
f 359/1/4 358/1/4 360/1/4
f 361/1/4 362/1/4 363/1/4
f 363/1/4 362/1/4 364/1/4
f 365/1/4 366/1/4 367/1/4
f 367/1/4 366/1/4 368/1/4
f 369/1/4 370/1/4 371/1/4
f 371/1/4 370/1/4 372/1/4
f 373/1/4 374/1/4 375/1/4
f 375/1/4 374/1/4 376/1/4
f 377/1/4 378/1/4 379/1/4
f 379/1/4 378/1/4 380/1/4
f 381/1/4 382/1/4 383/1/4
f 383/1/4 382/1/4 384/1/4
f 385/1/4 386/1/4 387/1/4
f 387/1/4 386/1/4 388/1/4
f 389/1/4 390/1/4 391/1/4
f 391/1/4 390/1/4 392/1/4
f 393/1/4 394/1/4 395/1/4
f 395/1/4 394/1/4 396/1/4
f 397/1/4 398/1/4 399/1/4
f 399/1/4 398/1/4 400/1/4
f 401/1/4 402/1/4 403/1/4
f 403/1/4 402/1/4 404/1/4
f 405/1/4 406/1/4 407/1/4
f 407/1/4 406/1/4 408/1/4
f 409/1/4 410/1/4 411/1/4
f 411/1/4 410/1/4 412/1/4
f 413/1/4 414/1/4 415/1/4
f 415/1/4 414/1/4 416/1/4
f 417/1/4 418/1/4 419/1/4
f 419/1/4 418/1/4 420/1/4
f 421/1/4 422/1/4 423/1/4
f 423/1/4 422/1/4 424/1/4
f 425/2/4 426/2/4 427/2/4
f 427/2/4 426/2/4 428/2/4
f 429/2/4 430/2/4 431/2/4
f 429/2/4 431/2/4 433/2/4
f 431/2/4 432/2/4 433/2/4
f 433/2/4 432/2/4 434/2/4
f 434/2/4 432/2/4 435/2/4
f 435/2/4 432/2/4 436/2/4
f 434/2/4 435/2/4 438/2/4
f 438/2/4 435/2/4 439/2/4
f 436/2/4 432/2/4 440/2/4
f 438/2/4 439/2/4 441/2/4
f 439/2/4 440/2/4 441/2/4
f 440/2/4 432/2/4 441/2/4
f 437/2/4 438/2/4 441/2/4
f 441/2/4 432/2/4 442/2/4
f 437/2/4 441/2/4 443/2/4
f 443/2/4 441/2/4 444/2/4
f 445/2/4 446/2/4 447/2/4
f 447/2/4 446/2/4 448/2/4
f 449/2/4 450/2/4 451/2/4
f 451/2/4 450/2/4 452/2/4
f 455/2/5 454/2/5 453/2/5
f 456/2/5 454/2/5 455/2/5
f 459/2/5 458/2/5 457/2/5
f 460/2/5 458/2/5 459/2/5
f 463/2/5 462/2/5 461/2/5
f 464/2/5 462/2/5 463/2/5
f 467/2/5 466/2/5 465/2/5
f 468/2/5 466/2/5 467/2/5
f 469/2/5 466/2/5 468/2/5
f 470/2/5 466/2/5 469/2/5
f 471/2/5 466/2/5 470/2/5
f 472/2/5 466/2/5 471/2/5
f 473/2/5 466/2/5 472/2/5
f 474/2/5 466/2/5 473/2/5
f 475/2/5 466/2/5 474/2/5
f 476/2/5 466/2/5 475/2/5
f 477/2/5 466/2/5 476/2/5
f 478/2/5 466/2/5 477/2/5
f 479/2/5 466/2/5 478/2/5
f 480/2/5 466/2/5 479/2/5
f 481/2/5 466/2/5 480/2/5
f 482/2/5 466/2/5 481/2/5
f 483/2/5 466/2/5 482/2/5
f 484/2/5 466/2/5 483/2/5
f 485/2/5 466/2/5 484/2/5
f 486/2/5 466/2/5 485/2/5
f 487/2/5 466/2/5 486/2/5
f 488/2/5 466/2/5 487/2/5
f 489/2/5 466/2/5 488/2/5
f 490/2/5 466/2/5 489/2/5
f 491/2/5 466/2/5 490/2/5
f 492/2/5 466/2/5 491/2/5
f 493/2/5 466/2/5 492/2/5
f 494/2/5 466/2/5 493/2/5
f 495/2/5 466/2/5 494/2/5
f 496/2/5 466/2/5 495/2/5
f 497/2/5 466/2/5 496/2/5
f 498/2/5 466/2/5 497/2/5
f 499/2/5 466/2/5 498/2/5
f 500/2/5 466/2/5 499/2/5
f 501/2/5 466/2/5 500/2/5
f 502/2/5 466/2/5 501/2/5
f 503/2/5 466/2/5 502/2/5
f 504/2/5 466/2/5 503/2/5
f 505/2/5 466/2/5 504/2/5
f 506/2/5 466/2/5 505/2/5
f 507/2/5 466/2/5 506/2/5
f 508/2/5 466/2/5 507/2/5
f 509/2/5 467/2/5 465/2/5
f 510/2/5 469/2/5 468/2/5
f 511/2/5 469/2/5 510/2/5
f 512/2/5 471/2/5 470/2/5
f 513/2/5 471/2/5 512/2/5
f 514/2/5 473/2/5 472/2/5
f 515/2/5 473/2/5 514/2/5
f 516/2/5 475/2/5 474/2/5
f 517/2/5 475/2/5 516/2/5
f 518/2/5 477/2/5 476/2/5
f 519/2/5 477/2/5 518/2/5
f 520/2/5 479/2/5 478/2/5
f 521/2/5 479/2/5 520/2/5
f 522/2/5 481/2/5 480/2/5
f 523/2/5 481/2/5 522/2/5
f 524/2/5 483/2/5 482/2/5
f 525/2/5 483/2/5 524/2/5
f 526/2/5 485/2/5 484/2/5
f 527/2/5 485/2/5 526/2/5
f 528/2/5 487/2/5 486/2/5
f 529/2/5 487/2/5 528/2/5
f 530/2/5 489/2/5 488/2/5
f 531/2/5 489/2/5 530/2/5
f 532/2/5 491/2/5 490/2/5
f 533/2/5 491/2/5 532/2/5
f 534/2/5 493/2/5 492/2/5
f 535/2/5 493/2/5 534/2/5
f 536/2/5 495/2/5 494/2/5
f 537/2/5 495/2/5 536/2/5
f 538/2/5 497/2/5 496/2/5
f 539/2/5 497/2/5 538/2/5
f 540/2/5 499/2/5 498/2/5
f 541/2/5 499/2/5 540/2/5
f 542/2/5 501/2/5 500/2/5
f 543/2/5 501/2/5 542/2/5
f 544/2/5 503/2/5 502/2/5
f 545/2/5 503/2/5 544/2/5
f 546/2/5 505/2/5 504/2/5
f 547/2/5 505/2/5 546/2/5
f 548/2/5 507/2/5 506/2/5
f 549/2/5 507/2/5 548/2/5
f 550/2/5 466/2/5 508/2/5
f 551/2/5 549/2/5 548/2/5
f 551/2/5 550/2/5 549/2/5
f 551/2/5 547/2/5 546/2/5
f 551/2/5 509/2/5 465/2/5
f 551/2/5 548/2/5 547/2/5
f 551/2/5 545/2/5 544/2/5
f 551/2/5 546/2/5 545/2/5
f 551/2/5 511/2/5 510/2/5
f 551/2/5 544/2/5 543/2/5
f 551/2/5 543/2/5 542/2/5
f 551/2/5 542/2/5 541/2/5
f 551/2/5 513/2/5 512/2/5
f 551/2/5 540/2/5 539/2/5
f 551/2/5 541/2/5 540/2/5
f 551/2/5 538/2/5 537/2/5
f 551/2/5 515/2/5 514/2/5
f 551/2/5 536/2/5 535/2/5
f 551/2/5 539/2/5 538/2/5
f 551/2/5 534/2/5 533/2/5
f 551/2/5 517/2/5 516/2/5
f 551/2/5 532/2/5 531/2/5
f 551/2/5 537/2/5 536/2/5
f 551/2/5 530/2/5 529/2/5
f 551/2/5 519/2/5 518/2/5
f 551/2/5 528/2/5 527/2/5
f 551/2/5 535/2/5 534/2/5
f 551/2/5 526/2/5 525/2/5
f 551/2/5 521/2/5 520/2/5
f 551/2/5 524/2/5 523/2/5
f 551/2/5 533/2/5 532/2/5
f 551/2/5 522/2/5 521/2/5
f 551/2/5 523/2/5 522/2/5
f 551/2/5 520/2/5 519/2/5
f 551/2/5 531/2/5 530/2/5
f 551/2/5 518/2/5 517/2/5
f 551/2/5 525/2/5 524/2/5
f 551/2/5 516/2/5 515/2/5
f 551/2/5 529/2/5 528/2/5
f 551/2/5 514/2/5 513/2/5
f 551/2/5 527/2/5 526/2/5
f 551/2/5 512/2/5 511/2/5
f 551/2/5 510/2/5 509/2/5
f 552/2/5 466/2/5 550/2/5
f 552/2/5 550/2/5 551/2/5
f 553/2/6 554/2/6 557/2/6
f 557/2/6 554/2/6 558/2/6
f 555/2/6 556/2/6 559/2/6
f 559/2/6 556/2/6 560/2/6
f 561/2/6 562/2/6 565/2/6
f 565/2/6 562/2/6 566/2/6
f 563/2/6 564/2/6 567/2/6
f 567/2/6 564/2/6 568/2/6
f 569/2/6 570/2/6 571/2/6
f 571/2/6 570/2/6 572/2/6
f 572/2/6 570/2/6 573/2/6
f 573/2/6 570/2/6 574/2/6
f 574/2/6 570/2/6 575/2/6
f 575/2/6 570/2/6 576/2/6
f 576/2/6 570/2/6 577/2/6
f 577/2/6 570/2/6 578/2/6
f 578/2/6 570/2/6 579/2/6
f 579/2/6 570/2/6 580/2/6
f 580/2/6 570/2/6 581/2/6
f 581/2/6 570/2/6 582/2/6
f 582/2/6 570/2/6 583/2/6
f 583/2/6 570/2/6 584/2/6
f 584/2/6 570/2/6 585/2/6
f 585/2/6 570/2/6 586/2/6
f 586/2/6 570/2/6 587/2/6
f 587/2/6 570/2/6 588/2/6
f 588/2/6 570/2/6 589/2/6
f 589/2/6 570/2/6 590/2/6
f 590/2/6 570/2/6 591/2/6
f 591/2/6 570/2/6 592/2/6
f 592/2/6 570/2/6 593/2/6
f 593/2/6 570/2/6 594/2/6
f 594/2/6 570/2/6 595/2/6
f 595/2/6 570/2/6 596/2/6
f 596/2/6 570/2/6 597/2/6
f 597/2/6 570/2/6 598/2/6
f 598/2/6 570/2/6 599/2/6
f 599/2/6 570/2/6 600/2/6
f 600/2/6 570/2/6 601/2/6
f 601/2/6 570/2/6 602/2/6
f 602/2/6 570/2/6 603/2/6
f 603/2/6 570/2/6 604/2/6
f 604/2/6 570/2/6 605/2/6
f 605/2/6 570/2/6 606/2/6
f 606/2/6 570/2/6 607/2/6
f 607/2/6 570/2/6 608/2/6
f 608/2/6 570/2/6 609/2/6
f 609/2/6 570/2/6 610/2/6
f 610/2/6 570/2/6 611/2/6
f 611/2/6 570/2/6 612/2/6
f 569/2/6 571/2/6 613/2/6
f 572/2/6 573/2/6 614/2/6
f 614/2/6 573/2/6 615/2/6
f 574/2/6 575/2/6 616/2/6
f 616/2/6 575/2/6 617/2/6
f 576/2/6 577/2/6 618/2/6
f 618/2/6 577/2/6 619/2/6
f 578/2/6 579/2/6 620/2/6
f 620/2/6 579/2/6 621/2/6
f 580/2/6 581/2/6 622/2/6
f 622/2/6 581/2/6 623/2/6
f 582/2/6 583/2/6 624/2/6
f 624/2/6 583/2/6 625/2/6
f 584/2/6 585/2/6 626/2/6
f 626/2/6 585/2/6 627/2/6
f 586/2/6 587/2/6 628/2/6
f 628/2/6 587/2/6 629/2/6
f 588/2/6 589/2/6 630/2/6
f 630/2/6 589/2/6 631/2/6
f 590/2/6 591/2/6 632/2/6
f 632/2/6 591/2/6 633/2/6
f 592/2/6 593/2/6 634/2/6
f 634/2/6 593/2/6 635/2/6
f 594/2/6 595/2/6 636/2/6
f 636/2/6 595/2/6 637/2/6
f 596/2/6 597/2/6 638/2/6
f 638/2/6 597/2/6 639/2/6
f 598/2/6 599/2/6 640/2/6
f 640/2/6 599/2/6 641/2/6
f 600/2/6 601/2/6 642/2/6
f 642/2/6 601/2/6 643/2/6
f 602/2/6 603/2/6 644/2/6
f 644/2/6 603/2/6 645/2/6
f 604/2/6 605/2/6 646/2/6
f 646/2/6 605/2/6 647/2/6
f 606/2/6 607/2/6 648/2/6
f 648/2/6 607/2/6 649/2/6
f 608/2/6 609/2/6 650/2/6
f 650/2/6 609/2/6 651/2/6
f 610/2/6 611/2/6 652/2/6
f 652/2/6 611/2/6 653/2/6
f 612/2/6 570/2/6 654/2/6
f 652/2/6 653/2/6 655/2/6
f 653/2/6 654/2/6 655/2/6
f 650/2/6 651/2/6 655/2/6
f 569/2/6 613/2/6 655/2/6
f 651/2/6 652/2/6 655/2/6
f 648/2/6 649/2/6 655/2/6
f 649/2/6 650/2/6 655/2/6
f 614/2/6 615/2/6 655/2/6
f 647/2/6 648/2/6 655/2/6
f 646/2/6 647/2/6 655/2/6
f 645/2/6 646/2/6 655/2/6
f 616/2/6 617/2/6 655/2/6
f 643/2/6 644/2/6 655/2/6
f 644/2/6 645/2/6 655/2/6
f 641/2/6 642/2/6 655/2/6
f 618/2/6 619/2/6 655/2/6
f 639/2/6 640/2/6 655/2/6
f 642/2/6 643/2/6 655/2/6
f 637/2/6 638/2/6 655/2/6
f 620/2/6 621/2/6 655/2/6
f 635/2/6 636/2/6 655/2/6
f 640/2/6 641/2/6 655/2/6
f 633/2/6 634/2/6 655/2/6
f 622/2/6 623/2/6 655/2/6
f 631/2/6 632/2/6 655/2/6
f 638/2/6 639/2/6 655/2/6
f 629/2/6 630/2/6 655/2/6
f 624/2/6 625/2/6 655/2/6
f 627/2/6 628/2/6 655/2/6
f 636/2/6 637/2/6 655/2/6
f 625/2/6 626/2/6 655/2/6
f 626/2/6 627/2/6 655/2/6
f 623/2/6 624/2/6 655/2/6
f 634/2/6 635/2/6 655/2/6
f 621/2/6 622/2/6 655/2/6
f 628/2/6 629/2/6 655/2/6
f 619/2/6 620/2/6 655/2/6
f 632/2/6 633/2/6 655/2/6
f 617/2/6 618/2/6 655/2/6
f 630/2/6 631/2/6 655/2/6
f 615/2/6 616/2/6 655/2/6
f 613/2/6 614/2/6 655/2/6
f 654/2/6 570/2/6 656/2/6
f 655/2/6 654/2/6 656/2/6
f 657/2/6 658/2/6 659/2/6
f 659/2/6 658/2/6 660/2/6
f 661/2/6 662/2/6 665/2/6
f 665/2/6 662/2/6 666/2/6
f 663/2/6 664/2/6 667/2/6
f 667/2/6 664/2/6 668/2/6
f 669/2/6 670/2/6 671/2/6
f 669/2/6 671/2/6 673/2/6
f 671/2/6 672/2/6 673/2/6
f 673/2/6 672/2/6 674/2/6
f 674/2/6 672/2/6 675/2/6
f 675/2/6 672/2/6 676/2/6
f 674/2/6 675/2/6 677/2/6
f 677/2/6 675/2/6 678/2/6
